<mxfile host="app.diagrams.net" modified="2024-08-28T14:44:40.966Z" agent="Mozilla/5.0 (Windows NT 10.0; Win64; x64; rv:129.0) Gecko/20100101 Firefox/129.0" etag="B_7RqKjtjSXACT5DCWix" version="24.0.7" type="device">
  <diagram name="Page-1" id="H7K_um0jzPT4StFX6qf9">
    <mxGraphModel dx="2284" dy="774" grid="1" gridSize="10" guides="1" tooltips="1" connect="1" arrows="1" fold="1" page="1" pageScale="1" pageWidth="850" pageHeight="1100" math="0" shadow="0">
      <root>
        <mxCell id="0" />
        <mxCell id="1" parent="0" />
        <mxCell id="wZrsy-fSiXbwxWBP5jbP-23" value="VPC" style="sketch=0;outlineConnect=0;gradientColor=none;html=1;whiteSpace=wrap;fontSize=12;fontStyle=0;shape=mxgraph.aws4.group;grIcon=mxgraph.aws4.group_vpc;strokeColor=#879196;fillColor=none;verticalAlign=top;align=left;spacingLeft=30;fontColor=#879196;dashed=0;strokeWidth=4;" vertex="1" parent="1">
          <mxGeometry x="-110" y="255" width="920" height="680" as="geometry" />
        </mxCell>
        <mxCell id="wZrsy-fSiXbwxWBP5jbP-12" value="Public subnet" style="points=[[0,0],[0.25,0],[0.5,0],[0.75,0],[1,0],[1,0.25],[1,0.5],[1,0.75],[1,1],[0.75,1],[0.5,1],[0.25,1],[0,1],[0,0.75],[0,0.5],[0,0.25]];outlineConnect=0;gradientColor=none;html=1;whiteSpace=wrap;fontSize=12;fontStyle=0;container=1;pointerEvents=0;collapsible=0;recursiveResize=0;shape=mxgraph.aws4.group;grIcon=mxgraph.aws4.group_security_group;grStroke=0;strokeColor=#7AA116;fillColor=#F2F6E8;verticalAlign=top;align=left;spacingLeft=30;fontColor=#248814;dashed=0;" vertex="1" parent="1">
          <mxGeometry x="-70" y="50" width="200" height="165" as="geometry" />
        </mxCell>
        <mxCell id="wZrsy-fSiXbwxWBP5jbP-13" value="VPC" style="sketch=0;outlineConnect=0;gradientColor=none;html=1;whiteSpace=wrap;fontSize=12;fontStyle=0;shape=mxgraph.aws4.group;grIcon=mxgraph.aws4.group_vpc;strokeColor=#879196;fillColor=none;verticalAlign=top;align=left;spacingLeft=30;fontColor=#879196;dashed=0;strokeWidth=3;" vertex="1" parent="wZrsy-fSiXbwxWBP5jbP-12">
          <mxGeometry x="-40" y="-22.5" width="290" height="200" as="geometry" />
        </mxCell>
        <mxCell id="wZrsy-fSiXbwxWBP5jbP-17" value="&lt;div align=&quot;right&quot;&gt;&lt;font data-darkreader-inline-color=&quot;&quot; style=&quot;--darkreader-inline-color: #99d17a;&quot; color=&quot;#97d077&quot;&gt;Security group&lt;/font&gt;&lt;/div&gt;" style="fillColor=none;strokeColor=#FFFFFF;verticalAlign=top;fontStyle=0;fontColor=#DD3522;whiteSpace=wrap;html=1;align=right;strokeWidth=3;" vertex="1" parent="wZrsy-fSiXbwxWBP5jbP-12">
          <mxGeometry x="20" y="30" width="130" height="95" as="geometry" />
        </mxCell>
        <mxCell id="wZrsy-fSiXbwxWBP5jbP-14" value="" style="sketch=0;points=[[0,0,0],[0.25,0,0],[0.5,0,0],[0.75,0,0],[1,0,0],[0,1,0],[0.25,1,0],[0.5,1,0],[0.75,1,0],[1,1,0],[0,0.25,0],[0,0.5,0],[0,0.75,0],[1,0.25,0],[1,0.5,0],[1,0.75,0]];outlineConnect=0;fontColor=#232F3E;fillColor=#ED7100;strokeColor=#ffffff;dashed=0;verticalLabelPosition=bottom;verticalAlign=top;align=center;html=1;fontSize=12;fontStyle=0;aspect=fixed;shape=mxgraph.aws4.resourceIcon;resIcon=mxgraph.aws4.ec2;" vertex="1" parent="wZrsy-fSiXbwxWBP5jbP-12">
          <mxGeometry x="61.25" y="56.25" width="42.5" height="42.5" as="geometry" />
        </mxCell>
        <mxCell id="wZrsy-fSiXbwxWBP5jbP-15" value="&lt;font data-darkreader-inline-color=&quot;&quot; style=&quot;--darkreader-inline-color: #1aff1a;&quot; color=&quot;#00ff00&quot;&gt;&lt;b&gt;Bastion&lt;/b&gt;&lt;/font&gt;" style="strokeWidth=1;shadow=0;dashed=0;align=center;html=1;shape=mxgraph.mockup.text.textBox;fontColor=#666666;align=left;fontSize=17;spacingLeft=4;spacingTop=-3;whiteSpace=wrap;strokeColor=#666666;mainText=" vertex="1" parent="wZrsy-fSiXbwxWBP5jbP-12">
          <mxGeometry x="47.5" y="99" width="70" height="20" as="geometry" />
        </mxCell>
        <mxCell id="wZrsy-fSiXbwxWBP5jbP-16" value="" style="outlineConnect=0;fillColor=#e6d0de;strokeColor=#996185;dashed=0;verticalLabelPosition=bottom;verticalAlign=top;align=center;html=1;fontSize=12;fontStyle=0;aspect=fixed;pointerEvents=1;shape=mxgraph.aws4.internet_gateway;fillStyle=solid;strokeWidth=2;shadow=0;gradientColor=#d5739d;" vertex="1" parent="wZrsy-fSiXbwxWBP5jbP-12">
          <mxGeometry x="-60" y="56.25" width="35" height="35" as="geometry" />
        </mxCell>
        <mxCell id="wZrsy-fSiXbwxWBP5jbP-11" value="Private subnet" style="points=[[0,0],[0.25,0],[0.5,0],[0.75,0],[1,0],[1,0.25],[1,0.5],[1,0.75],[1,1],[0.75,1],[0.5,1],[0.25,1],[0,1],[0,0.75],[0,0.5],[0,0.25]];outlineConnect=0;gradientColor=none;html=1;whiteSpace=wrap;fontSize=12;fontStyle=0;container=1;pointerEvents=0;collapsible=0;recursiveResize=0;shape=mxgraph.aws4.group;grIcon=mxgraph.aws4.group_security_group;grStroke=0;strokeColor=#00A4A6;fillColor=#E6F6F7;verticalAlign=top;align=left;spacingLeft=30;fontColor=#147EBA;dashed=0;" vertex="1" parent="1">
          <mxGeometry x="320" y="20" width="450" height="140" as="geometry" />
        </mxCell>
        <mxCell id="wZrsy-fSiXbwxWBP5jbP-31" value="" style="edgeStyle=orthogonalEdgeStyle;rounded=0;orthogonalLoop=1;jettySize=auto;html=1;strokeWidth=3;strokeColor=#1cff1c;" edge="1" parent="1" source="wZrsy-fSiXbwxWBP5jbP-1" target="wZrsy-fSiXbwxWBP5jbP-30">
          <mxGeometry relative="1" as="geometry" />
        </mxCell>
        <mxCell id="wZrsy-fSiXbwxWBP5jbP-1" value="VPC" style="sketch=0;outlineConnect=0;gradientColor=none;html=1;whiteSpace=wrap;fontSize=12;fontStyle=0;shape=mxgraph.aws4.group;grIcon=mxgraph.aws4.group_vpc;strokeColor=#879196;fillColor=none;verticalAlign=top;align=left;spacingLeft=30;fontColor=#879196;dashed=0;strokeWidth=3;" vertex="1" parent="1">
          <mxGeometry x="290" y="10" width="490" height="160" as="geometry" />
        </mxCell>
        <mxCell id="wZrsy-fSiXbwxWBP5jbP-2" value="" style="sketch=0;points=[[0,0,0],[0.25,0,0],[0.5,0,0],[0.75,0,0],[1,0,0],[0,1,0],[0.25,1,0],[0.5,1,0],[0.75,1,0],[1,1,0],[0,0.25,0],[0,0.5,0],[0,0.75,0],[1,0.25,0],[1,0.5,0],[1,0.75,0]];outlineConnect=0;fontColor=#232F3E;fillColor=#ED7100;strokeColor=#ffffff;dashed=0;verticalLabelPosition=bottom;verticalAlign=top;align=center;html=1;fontSize=12;fontStyle=0;aspect=fixed;shape=mxgraph.aws4.resourceIcon;resIcon=mxgraph.aws4.ec2;" vertex="1" parent="1">
          <mxGeometry x="373.5" y="63.5" width="39" height="39" as="geometry" />
        </mxCell>
        <mxCell id="wZrsy-fSiXbwxWBP5jbP-3" value="" style="rounded=1;arcSize=10;dashed=1;fillColor=none;gradientColor=none;dashPattern=8 3 1 3;strokeWidth=2;" vertex="1" parent="1">
          <mxGeometry x="450" y="35" width="300" height="110" as="geometry" />
        </mxCell>
        <mxCell id="wZrsy-fSiXbwxWBP5jbP-4" value="" style="outlineConnect=0;dashed=0;verticalLabelPosition=bottom;verticalAlign=top;align=center;html=1;shape=mxgraph.aws3.auto_scaling;fillColor=#F58534;gradientColor=none;" vertex="1" parent="1">
          <mxGeometry x="450" y="35" width="39" height="40" as="geometry" />
        </mxCell>
        <mxCell id="wZrsy-fSiXbwxWBP5jbP-5" value="" style="sketch=0;points=[[0,0,0],[0.25,0,0],[0.5,0,0],[0.75,0,0],[1,0,0],[0,1,0],[0.25,1,0],[0.5,1,0],[0.75,1,0],[1,1,0],[0,0.25,0],[0,0.5,0],[0,0.75,0],[1,0.25,0],[1,0.5,0],[1,0.75,0]];outlineConnect=0;fontColor=#232F3E;fillColor=#ED7100;strokeColor=#ffffff;dashed=0;verticalLabelPosition=bottom;verticalAlign=top;align=center;html=1;fontSize=12;fontStyle=0;aspect=fixed;shape=mxgraph.aws4.resourceIcon;resIcon=mxgraph.aws4.ec2;" vertex="1" parent="1">
          <mxGeometry x="515" y="51" width="60" height="60" as="geometry" />
        </mxCell>
        <mxCell id="wZrsy-fSiXbwxWBP5jbP-6" value="" style="sketch=0;points=[[0,0,0],[0.25,0,0],[0.5,0,0],[0.75,0,0],[1,0,0],[0,1,0],[0.25,1,0],[0.5,1,0],[0.75,1,0],[1,1,0],[0,0.25,0],[0,0.5,0],[0,0.75,0],[1,0.25,0],[1,0.5,0],[1,0.75,0]];outlineConnect=0;fontColor=#232F3E;fillColor=#ED7100;strokeColor=#ffffff;dashed=0;verticalLabelPosition=bottom;verticalAlign=top;align=center;html=1;fontSize=12;fontStyle=0;aspect=fixed;shape=mxgraph.aws4.resourceIcon;resIcon=mxgraph.aws4.ec2;" vertex="1" parent="1">
          <mxGeometry x="590" y="51" width="60" height="60" as="geometry" />
        </mxCell>
        <mxCell id="wZrsy-fSiXbwxWBP5jbP-9" value="&lt;b&gt;&lt;font data-darkreader-inline-color=&quot;&quot; style=&quot;--darkreader-inline-color: #1aff1a;&quot; color=&quot;#00ff00&quot;&gt;Gitlab&lt;/font&gt;&lt;/b&gt;" style="strokeWidth=1;shadow=0;dashed=0;align=center;html=1;shape=mxgraph.mockup.text.textBox;fontColor=#666666;align=left;fontSize=17;spacingLeft=4;spacingTop=-3;whiteSpace=wrap;strokeColor=#666666;mainText=" vertex="1" parent="1">
          <mxGeometry x="358" y="125" width="70" height="20" as="geometry" />
        </mxCell>
        <mxCell id="wZrsy-fSiXbwxWBP5jbP-10" value="&lt;b&gt;&lt;font data-darkreader-inline-color=&quot;&quot; style=&quot;--darkreader-inline-color: #1aff1a;&quot; color=&quot;#00ff00&quot;&gt;Gitlab runners&lt;br&gt;&lt;/font&gt;&lt;/b&gt;" style="strokeWidth=1;shadow=0;dashed=0;align=center;html=1;shape=mxgraph.mockup.text.textBox;fontColor=#666666;align=left;fontSize=17;spacingLeft=4;spacingTop=-3;whiteSpace=wrap;strokeColor=#666666;mainText=" vertex="1" parent="1">
          <mxGeometry x="520" y="125" width="130" height="20" as="geometry" />
        </mxCell>
        <mxCell id="wZrsy-fSiXbwxWBP5jbP-19" value="&lt;div align=&quot;right&quot;&gt;&lt;font data-darkreader-inline-color=&quot;&quot; style=&quot;--darkreader-inline-color: #99d17a;&quot; color=&quot;#97d077&quot;&gt;Security group&lt;/font&gt;&lt;/div&gt;" style="fillColor=none;strokeColor=#FFFFFF;verticalAlign=top;fontStyle=0;fontColor=#DD3522;whiteSpace=wrap;html=1;align=right;strokeWidth=3;" vertex="1" parent="1">
          <mxGeometry x="348" y="43.5" width="90" height="75" as="geometry" />
        </mxCell>
        <mxCell id="wZrsy-fSiXbwxWBP5jbP-18" value="&lt;div align=&quot;right&quot;&gt;&lt;font data-darkreader-inline-color=&quot;&quot; style=&quot;--darkreader-inline-color: #99d17a;&quot; color=&quot;#97d077&quot;&gt;Security group&lt;/font&gt;&lt;/div&gt;" style="fillColor=none;strokeColor=#FFFFFF;verticalAlign=top;fontStyle=0;fontColor=#DD3522;whiteSpace=wrap;html=1;align=right;strokeWidth=3;" vertex="1" parent="1">
          <mxGeometry x="500" y="44.25" width="240" height="77.5" as="geometry" />
        </mxCell>
        <mxCell id="wZrsy-fSiXbwxWBP5jbP-21" value="&lt;div align=&quot;center&quot;&gt;&lt;font data-darkreader-inline-color=&quot;&quot; style=&quot;--darkreader-inline-color: #1aff1a;&quot; color=&quot;#00ff00&quot;&gt;&lt;b&gt;IGW&lt;/b&gt;&lt;/font&gt;&lt;/div&gt;" style="strokeWidth=1;shadow=0;dashed=0;align=center;html=1;shape=mxgraph.mockup.text.textBox;fontColor=#666666;align=left;fontSize=17;spacingLeft=4;spacingTop=-3;whiteSpace=wrap;strokeColor=#666666;mainText=" vertex="1" parent="1">
          <mxGeometry x="-170" y="145" width="50" height="20" as="geometry" />
        </mxCell>
        <mxCell id="wZrsy-fSiXbwxWBP5jbP-24" value="" style="outlineConnect=0;fillColor=#e6d0de;strokeColor=#996185;dashed=0;verticalLabelPosition=bottom;verticalAlign=top;align=center;html=1;fontSize=12;fontStyle=0;aspect=fixed;pointerEvents=1;shape=mxgraph.aws4.internet_gateway;fillStyle=solid;strokeWidth=2;shadow=0;gradientColor=#d5739d;" vertex="1" parent="1">
          <mxGeometry x="-130" y="400" width="35" height="35" as="geometry" />
        </mxCell>
        <mxCell id="wZrsy-fSiXbwxWBP5jbP-25" value="&lt;div align=&quot;center&quot;&gt;&lt;font data-darkreader-inline-color=&quot;&quot; style=&quot;--darkreader-inline-color: #1aff1a;&quot; color=&quot;#00ff00&quot;&gt;&lt;b&gt;IGW&lt;/b&gt;&lt;/font&gt;&lt;/div&gt;" style="strokeWidth=1;shadow=0;dashed=0;align=center;html=1;shape=mxgraph.mockup.text.textBox;fontColor=#666666;align=left;fontSize=17;spacingLeft=4;spacingTop=-3;whiteSpace=wrap;strokeColor=#666666;mainText=" vertex="1" parent="1">
          <mxGeometry x="-170" y="438.75" width="50" height="20" as="geometry" />
        </mxCell>
        <mxCell id="wZrsy-fSiXbwxWBP5jbP-26" value="Public subnet" style="points=[[0,0],[0.25,0],[0.5,0],[0.75,0],[1,0],[1,0.25],[1,0.5],[1,0.75],[1,1],[0.75,1],[0.5,1],[0.25,1],[0,1],[0,0.75],[0,0.5],[0,0.25]];outlineConnect=0;gradientColor=none;html=1;whiteSpace=wrap;fontSize=12;fontStyle=0;container=1;pointerEvents=0;collapsible=0;recursiveResize=0;shape=mxgraph.aws4.group;grIcon=mxgraph.aws4.group_security_group;grStroke=0;strokeColor=#7AA116;fillColor=#F2F6E8;verticalAlign=top;align=left;spacingLeft=30;fontColor=#248814;dashed=0;" vertex="1" parent="1">
          <mxGeometry x="-70" y="320" width="130" height="130" as="geometry" />
        </mxCell>
        <mxCell id="wZrsy-fSiXbwxWBP5jbP-28" value="" style="sketch=0;outlineConnect=0;fontColor=#232F3E;gradientColor=none;fillColor=#5CE07F;strokeColor=none;dashed=0;verticalLabelPosition=bottom;verticalAlign=top;align=center;html=1;fontSize=12;fontStyle=0;aspect=fixed;pointerEvents=1;shape=mxgraph.aws4.application_load_balancer;" vertex="1" parent="1">
          <mxGeometry x="-44" y="346" width="78" height="78" as="geometry" />
        </mxCell>
        <mxCell id="wZrsy-fSiXbwxWBP5jbP-29" value="&lt;div align=&quot;center&quot;&gt;&lt;font data-darkreader-inline-color=&quot;&quot; style=&quot;--darkreader-inline-color: #1aff1a;&quot; color=&quot;#00ff00&quot;&gt;&lt;b&gt;ALB&lt;/b&gt;&lt;/font&gt;&lt;/div&gt;" style="strokeWidth=1;shadow=0;dashed=0;align=center;html=1;shape=mxgraph.mockup.text.textBox;fontColor=#666666;align=left;fontSize=17;spacingLeft=4;spacingTop=-3;whiteSpace=wrap;strokeColor=#666666;mainText=" vertex="1" parent="1">
          <mxGeometry x="-30" y="424" width="50" height="20" as="geometry" />
        </mxCell>
        <mxCell id="wZrsy-fSiXbwxWBP5jbP-30" value="" style="sketch=0;points=[[0,0,0],[0.25,0,0],[0.5,0,0],[0.75,0,0],[1,0,0],[0,1,0],[0.25,1,0],[0.5,1,0],[0.75,1,0],[1,1,0],[0,0.25,0],[0,0.5,0],[0,0.75,0],[1,0.25,0],[1,0.5,0],[1,0.75,0]];outlineConnect=0;fontColor=#232F3E;fillColor=#ED7100;strokeColor=#ffffff;dashed=0;verticalLabelPosition=bottom;verticalAlign=top;align=center;html=1;fontSize=12;fontStyle=0;aspect=fixed;shape=mxgraph.aws4.resourceIcon;resIcon=mxgraph.aws4.ecr;" vertex="1" parent="1">
          <mxGeometry x="910" y="10" width="78" height="78" as="geometry" />
        </mxCell>
        <mxCell id="wZrsy-fSiXbwxWBP5jbP-32" value="&lt;div align=&quot;center&quot;&gt;&lt;font data-darkreader-inline-color=&quot;&quot; style=&quot;--darkreader-inline-color: #1aff1a;&quot; color=&quot;#00ff00&quot;&gt;&lt;b&gt;ECR&lt;/b&gt;&lt;/font&gt;&lt;/div&gt;" style="strokeWidth=1;shadow=0;dashed=0;align=center;html=1;shape=mxgraph.mockup.text.textBox;fontColor=#666666;align=left;fontSize=17;spacingLeft=4;spacingTop=-3;whiteSpace=wrap;strokeColor=#666666;mainText=" vertex="1" parent="1">
          <mxGeometry x="926" y="91" width="46" height="20" as="geometry" />
        </mxCell>
        <mxCell id="wZrsy-fSiXbwxWBP5jbP-34" value="Private subnet" style="points=[[0,0],[0.25,0],[0.5,0],[0.75,0],[1,0],[1,0.25],[1,0.5],[1,0.75],[1,1],[0.75,1],[0.5,1],[0.25,1],[0,1],[0,0.75],[0,0.5],[0,0.25]];outlineConnect=0;gradientColor=none;html=1;whiteSpace=wrap;fontSize=12;fontStyle=0;container=1;pointerEvents=0;collapsible=0;recursiveResize=0;shape=mxgraph.aws4.group;grIcon=mxgraph.aws4.group_security_group;grStroke=0;strokeColor=#00A4A6;fillColor=#E6F6F7;verticalAlign=top;align=left;spacingLeft=30;fontColor=#147EBA;dashed=0;" vertex="1" parent="1">
          <mxGeometry x="298" y="314" width="352" height="256" as="geometry" />
        </mxCell>
        <mxCell id="wZrsy-fSiXbwxWBP5jbP-33" value="" style="sketch=0;points=[[0,0,0],[0.25,0,0],[0.5,0,0],[0.75,0,0],[1,0,0],[0,1,0],[0.25,1,0],[0.5,1,0],[0.75,1,0],[1,1,0],[0,0.25,0],[0,0.5,0],[0,0.75,0],[1,0.25,0],[1,0.5,0],[1,0.75,0]];outlineConnect=0;fontColor=#232F3E;fillColor=#ED7100;strokeColor=#ffffff;dashed=0;verticalLabelPosition=bottom;verticalAlign=top;align=center;html=1;fontSize=12;fontStyle=0;aspect=fixed;shape=mxgraph.aws4.resourceIcon;resIcon=mxgraph.aws4.eks;" vertex="1" parent="wZrsy-fSiXbwxWBP5jbP-34">
          <mxGeometry x="121" y="65" width="110" height="110" as="geometry" />
        </mxCell>
        <mxCell id="wZrsy-fSiXbwxWBP5jbP-36" value="&lt;font data-darkreader-inline-color=&quot;&quot; style=&quot;--darkreader-inline-color: #62e184;&quot; color=&quot;#5ce07f&quot;&gt;EKS&lt;/font&gt;" style="strokeWidth=1;shadow=0;dashed=0;align=center;html=1;shape=mxgraph.mockup.text.textBox;fontColor=#666666;align=left;fontSize=17;spacingLeft=4;spacingTop=-3;whiteSpace=wrap;strokeColor=#666666;mainText=" vertex="1" parent="wZrsy-fSiXbwxWBP5jbP-34">
          <mxGeometry x="151" y="186" width="50" height="20" as="geometry" />
        </mxCell>
      </root>
    </mxGraphModel>
  </diagram>
</mxfile>
